<svg xmlns="http://www.w3.org/2000/svg" xmlns:v="https://svgstorm.com"
viewBox = "0 0 436 430"
width="436"
height="430">
<g fill="None" fill-opacity="0.0" stroke="#000000" stroke-opacity="0.00" stroke-width="0.3"><path d="
M 0.00 430.00 
L 436.00 430.00
L 436.00 0.00
L 0.00 0.00
L 0.00 430.00
M 239.00 20.00 
C 318.51 27.69 387.94 82.81 409.99 162.01 C 432.04 241.21 401.68 333.41 329.75 379.75 C 257.83 426.10 161.18 420.61 95.25 365.75 C 29.32 310.89 8.01 213.19 41.93 136.93 C 75.84 60.66 155.17 11.89 239.00 20.00 Z"/>
</g>
<g fill="None" fill-opacity="0.0" stroke="#EAB230" stroke-opacity="1.00" stroke-width="0.3"><path d="
M 239.00 20.00 
C 155.17 11.89 75.84 60.66 41.93 136.93 C 8.01 213.19 29.32 310.89 95.25 365.75 C 161.18 420.61 257.83 426.10 329.75 379.75 C 401.68 333.41 432.04 241.21 409.99 162.01 C 387.94 82.81 318.51 27.69 239.00 20.00
M 325.00 188.00 
C 304.33 188.00 283.67 188.00 263.00 188.00
C 267.52 160.59 250.88 141.58 225.93 137.07 C 200.98 132.56 177.94 160.68 156.25 142.75 C 134.56 124.81 154.42 99.54 175.69 92.69 C 196.97 85.84 228.80 78.87 252.01 84.99 C 275.21 91.12 292.43 98.20 306.92 118.08 C 321.40 137.96 326.61 162.80 325.00 188.00
M 189.00 189.00 
C 158.05 189.90 121.98 210.25 119.00 244.00
C 115.87 229.19 119.74 218.14 118.00 202.00 C 116.26 185.86 134.08 186.87 147.00 188.00 C 159.92 189.13 176.67 186.32 189.00 189.00
M 223.00 217.00 
C 245.55 218.20 259.59 246.10 247.08 265.08 C 234.57 284.05 204.95 283.89 193.70 263.30 C 182.45 242.72 198.99 215.72 223.00 217.00
M 119.00 266.00 
C 129.28 333.72 227.10 339.93 268.00 296.00
C 262.98 311.70 272.57 321.35 287.00 318.00 C 301.43 314.65 313.36 322.81 325.00 315.00
C 320.68 351.56 283.37 351.96 251.00 349.00 C 218.63 346.04 177.84 354.50 144.98 347.02 C 112.11 339.55 116.25 291.15 119.00 266.00 Z"/>
</g>
<g fill="None" fill-opacity="0.0" stroke="#000000" stroke-opacity="1.00" stroke-width="0.3"><path d="
M 325.00 188.00 
C 326.61 162.80 321.40 137.96 306.92 118.08 C 292.43 98.20 275.21 91.12 252.01 84.99 C 228.80 78.87 196.97 85.84 175.69 92.69 C 154.42 99.54 134.56 124.81 156.25 142.75 C 177.94 160.68 200.98 132.56 225.93 137.07 C 250.88 141.58 267.52 160.59 263.00 188.00
C 283.67 188.00 304.33 188.00 325.00 188.00 Z"/>
</g>
<g fill="None" fill-opacity="0.0" stroke="#000000" stroke-opacity="1.00" stroke-width="0.3"><path d="
M 189.00 189.00 
C 176.67 186.32 159.92 189.13 147.00 188.00 C 134.08 186.87 116.26 185.86 118.00 202.00 C 119.74 218.14 115.87 229.19 119.00 244.00
C 121.98 210.25 158.05 189.90 189.00 189.00 Z"/>
</g>
<g fill="None" fill-opacity="0.0" stroke="#000000" stroke-opacity="1.00" stroke-width="0.3"><path d="
M 223.00 217.00 
C 198.99 215.72 182.45 242.72 193.70 263.30 C 204.95 283.89 234.57 284.05 247.08 265.08 C 259.59 246.10 245.55 218.20 223.00 217.00 Z"/>
</g>
<g fill="None" fill-opacity="0.0" stroke="#000000" stroke-opacity="1.00" stroke-width="0.3"><path d="
M 119.00 266.00 
C 116.25 291.15 112.11 339.55 144.98 347.02 C 177.84 354.50 218.63 346.04 251.00 349.00 C 283.37 351.96 320.68 351.56 325.00 315.00
C 313.36 322.81 301.43 314.65 287.00 318.00 C 272.57 321.35 262.98 311.70 268.00 296.00
C 227.10 339.93 129.28 333.72 119.00 266.00 Z"/>
</g>
<g fill="#000000" fill-opacity="0.00" stroke="None">
<path d="
M 0.00 430.00 
L 436.00 430.00
L 436.00 0.00
L 0.00 0.00
L 0.00 430.00
M 239.00 20.00 
C 318.51 27.69 387.94 82.81 409.99 162.01 C 432.04 241.21 401.68 333.41 329.75 379.75 C 257.83 426.10 161.18 420.61 95.25 365.75 C 29.32 310.89 8.01 213.19 41.93 136.93 C 75.84 60.66 155.17 11.89 239.00 20.00 Z"/>
</g>
<g fill="#EAB230" fill-opacity="1.00" stroke="None">
<path d="
M 239.00 20.00 
C 155.17 11.89 75.84 60.66 41.93 136.93 C 8.01 213.19 29.32 310.89 95.25 365.75 C 161.18 420.61 257.83 426.10 329.75 379.75 C 401.68 333.41 432.04 241.21 409.99 162.01 C 387.94 82.81 318.51 27.69 239.00 20.00
M 325.00 188.00 
C 304.33 188.00 283.67 188.00 263.00 188.00
C 267.52 160.59 250.88 141.58 225.93 137.07 C 200.98 132.56 177.94 160.68 156.25 142.75 C 134.56 124.81 154.42 99.54 175.69 92.69 C 196.97 85.84 228.80 78.87 252.01 84.99 C 275.21 91.12 292.43 98.20 306.92 118.08 C 321.40 137.96 326.61 162.80 325.00 188.00
M 189.00 189.00 
C 158.05 189.90 121.98 210.25 119.00 244.00
C 115.87 229.19 119.74 218.14 118.00 202.00 C 116.26 185.86 134.08 186.87 147.00 188.00 C 159.92 189.13 176.67 186.32 189.00 189.00
M 223.00 217.00 
C 245.55 218.20 259.59 246.10 247.08 265.08 C 234.57 284.05 204.95 283.89 193.70 263.30 C 182.45 242.72 198.99 215.72 223.00 217.00
M 119.00 266.00 
C 129.28 333.72 227.10 339.93 268.00 296.00
C 262.98 311.70 272.57 321.35 287.00 318.00 C 301.43 314.65 313.36 322.81 325.00 315.00
C 320.68 351.56 283.37 351.96 251.00 349.00 C 218.63 346.04 177.84 354.50 144.98 347.02 C 112.11 339.55 116.25 291.15 119.00 266.00 Z"/>
</g>
<g fill="#000000" fill-opacity="1.00" stroke="None">
<path d="
M 325.00 188.00 
C 326.61 162.80 321.40 137.96 306.92 118.08 C 292.43 98.20 275.21 91.12 252.01 84.99 C 228.80 78.87 196.97 85.84 175.69 92.69 C 154.42 99.54 134.56 124.81 156.25 142.75 C 177.94 160.68 200.98 132.56 225.93 137.07 C 250.88 141.58 267.52 160.59 263.00 188.00
C 283.67 188.00 304.33 188.00 325.00 188.00 Z"/>
</g>
<g fill="#000000" fill-opacity="1.00" stroke="None">
<path d="
M 189.00 189.00 
C 176.67 186.32 159.92 189.13 147.00 188.00 C 134.08 186.87 116.26 185.86 118.00 202.00 C 119.74 218.14 115.87 229.19 119.00 244.00
C 121.98 210.25 158.05 189.90 189.00 189.00 Z"/>
</g>
<g fill="#000000" fill-opacity="1.00" stroke="None">
<path d="
M 223.00 217.00 
C 198.99 215.72 182.45 242.72 193.70 263.30 C 204.95 283.89 234.57 284.05 247.08 265.08 C 259.59 246.10 245.55 218.20 223.00 217.00 Z"/>
</g>
<g fill="#000000" fill-opacity="1.00" stroke="None">
<path d="
M 119.00 266.00 
C 116.25 291.15 112.11 339.55 144.98 347.02 C 177.84 354.50 218.63 346.04 251.00 349.00 C 283.37 351.96 320.68 351.56 325.00 315.00
C 313.36 322.81 301.43 314.65 287.00 318.00 C 272.57 321.35 262.98 311.70 268.00 296.00
C 227.10 339.93 129.28 333.72 119.00 266.00 Z"/>
</g>
</svg>